<?xml version="1.0" standalone="no"?>
<!DOCTYPE svg PUBLIC "-//W3C//DTD SVG 20010904//EN"
 "http://www.w3.org/TR/2001/REC-SVG-20010904/DTD/svg10.dtd">
<svg version="1.0" xmlns="http://www.w3.org/2000/svg"
 width="1200.000000pt" height="1200.000000pt" viewBox="0 0 1200.000000 1200.000000"
 preserveAspectRatio="xMidYMid meet">

<g transform="translate(0.000000,1200.000000) scale(0.100000,-0.100000)"
fill="#148cfa" stroke="none">
<path d="M6491 9855 c-206 -45 -392 -160 -531 -329 -60 -72 -154 -255 -175
-342 -36 -146 -36 -354 0 -495 35 -133 120 -283 223 -391 91 -95 176 -157 279
-204 43 -20 87 -40 98 -45 88 -41 325 -61 462 -39 131 20 296 90 398 168 141
106 229 214 301 366 67 141 87 252 81 431 -6 160 -24 236 -87 369 -119 249
-367 450 -625 506 -108 24 -326 26 -424 5z"/>
<path d="M10739 8985 c-102 -25 -224 -91 -299 -161 -82 -78 -119 -133 -167
-249 -29 -73 -36 -104 -40 -184 -6 -99 9 -224 29 -248 6 -7 8 -13 4 -13 -3 0
5 -22 19 -49 19 -38 22 -51 12 -59 -7 -6 -100 -53 -207 -106 -107 -53 -211
-105 -230 -115 -19 -10 -87 -40 -150 -66 -63 -26 -119 -50 -125 -55 -15 -11
-380 -136 -465 -159 -411 -111 -667 -145 -1110 -145 -315 0 -529 15 -785 54
-160 25 -652 116 -726 135 -32 8 -167 38 -301 66 -134 28 -295 62 -358 75 -63
14 -207 41 -320 61 -517 90 -607 98 -1075 98 -308 0 -407 -3 -520 -18 -202
-26 -608 -119 -713 -163 -18 -7 -75 -28 -125 -45 -51 -17 -114 -43 -142 -56
-27 -14 -89 -42 -137 -63 -238 -104 -596 -336 -855 -552 -45 -37 -86 -68 -91
-68 -5 0 -17 11 -26 25 -33 50 -117 124 -192 169 -118 70 -164 81 -334 81
-176 0 -237 -17 -363 -102 -103 -69 -174 -150 -225 -256 -51 -105 -66 -169
-66 -287 0 -125 24 -218 82 -320 89 -154 250 -278 407 -316 90 -21 240 -21
330 0 197 47 383 217 452 413 25 71 28 90 28 223 0 136 -2 151 -30 231 -29 84
-30 87 -12 99 11 6 90 47 176 90 547 273 1001 422 1481 484 69 9 158 21 199
26 126 17 428 23 581 11 276 -21 739 -78 890 -110 46 -10 407 -85 915 -191
490 -102 435 -93 1005 -170 236 -32 780 -38 970 -11 366 52 537 89 795 173
457 149 938 428 1326 770 36 32 71 58 77 58 6 0 13 -9 17 -19 10 -31 114 -133
183 -179 104 -68 300 -119 409 -106 62 8 207 50 257 76 56 29 159 112 192 155
15 21 31 40 35 43 19 14 71 125 93 201 48 159 30 331 -52 494 -53 106 -171
220 -284 274 -48 22 -115 48 -150 56 -77 18 -214 18 -289 0z m-9264 -2100
c218 -110 291 -378 156 -575 -43 -63 -152 -143 -218 -159 -54 -14 -152 -14
-206 0 -61 15 -174 96 -212 151 -74 107 -93 237 -52 350 35 94 69 141 142 193
88 63 130 75 241 72 77 -2 99 -7 149 -32z"/>
<path d="M4571 7049 c-123 -11 -309 -43 -391 -68 -36 -11 -112 -33 -170 -50
-333 -95 -729 -324 -1202 -693 -171 -133 -435 -376 -582 -532 l-108 -117 78
56 c131 92 488 327 576 379 505 297 905 487 1169 556 162 42 340 78 444 90
112 12 396 13 492 0 138 -18 317 -80 390 -136 162 -124 103 -380 -175 -759
-70 -95 -90 -119 -242 -285 -149 -163 -436 -442 -551 -535 -20 -16 -83 -71
-140 -120 -57 -50 -129 -110 -159 -135 -30 -25 -61 -51 -68 -58 -8 -7 -30 -25
-50 -40 -21 -15 -46 -35 -57 -46 -11 -10 -56 -46 -99 -80 -43 -33 -109 -84
-145 -113 -111 -88 -528 -404 -617 -468 -46 -33 -141 -102 -211 -154 -218
-161 -218 -161 -432 -314 -36 -26 -104 -74 -151 -107 -47 -33 -123 -87 -170
-120 -47 -34 -116 -83 -155 -110 -237 -168 -383 -270 -495 -350 -43 -30 -113
-79 -156 -109 -44 -30 -95 -67 -114 -81 -19 -15 -82 -60 -140 -100 -121 -85
-297 -211 -355 -255 -22 -16 -52 -38 -65 -47 -24 -17 72 24 195 82 33 16 130
61 215 100 304 141 949 470 1127 576 41 24 76 44 77 44 14 0 612 348 731 425
28 18 68 43 90 55 91 54 374 239 705 461 69 47 249 176 420 303 154 114 446
351 642 520 131 115 471 455 564 566 180 215 294 383 383 562 70 144 107 261
120 390 27 265 -57 476 -248 622 -213 164 -552 232 -970 195z"/>
</g>
</svg>
